<svg width="815" height="383" viewBox="0 0 815 383" fill="none" xmlns="http://www.w3.org/2000/svg">
<path d="M333.798 124.931C328.204 87.6379 333.797 83.9086 214.461 83.9086C95.1246 83.9086 48.1357 124.931 39.1855 162.223C27.9977 208.839 82.0722 164.088 85.8014 193.922C89.5307 223.756 -1.83648 208.839 0.0281608 242.403C3.7576 253.591 85.8014 253.591 85.8014 272.237C85.8014 289.019 35.4561 298.342 46.6439 318.853C61.8492 346.729 108.177 300.206 128.688 313.259C149.199 326.311 83.9368 363.604 124.959 378.521C189.891 402.133 333.798 326.311 333.798 292.748C333.798 259.184 300.234 296.477 296.505 264.778C292.776 233.08 354.309 242.403 384.143 205.11C413.977 167.817 289.047 214.433 277.859 193.922C266.671 173.411 339.392 162.223 333.798 124.931Z" fill="#435058"/>
<path d="M359.903 348.687C362.389 328.176 337.528 354.281 311.422 354.281C279.723 354.281 274.13 382.25 303.964 382.25C333.798 382.25 358.095 363.604 359.903 348.687Z" fill="#435058"/>
<path d="M128.474 100.69H106.312C108.327 -33.5635 281.588 -33.5635 281.588 100.69L261.441 100.69C261.441 -0.516329 128.474 -6.71263 128.474 100.69Z" fill="#435058"/>
<path d="M194.038 182.8C159.369 184.447 166.461 228.102 186.159 228.102L178.28 261.049H217.676L209.797 228.102C229.495 228.102 237.374 180.74 194.038 182.8Z" fill="#DCF763"/>
<path d="M452.389 218.535C438.839 218.535 427.154 216.111 417.334 211.263C407.513 206.415 399.992 199.081 394.771 189.261C389.55 179.44 386.94 167.134 386.94 152.341C386.94 137.299 389.55 124.931 394.771 115.235C399.992 105.414 407.513 98.142 417.334 93.4183C427.154 88.5702 438.839 86.1462 452.389 86.1462C466.187 86.1462 477.934 88.5702 487.63 93.4183C497.451 98.142 504.971 105.414 510.192 115.235C515.413 124.931 518.024 137.299 518.024 152.341C518.024 167.134 515.413 179.44 510.192 189.261C504.971 199.081 497.451 206.415 487.63 211.263C477.934 216.111 466.187 218.535 452.389 218.535ZM452.389 195.787C458.48 195.787 463.825 194.917 468.425 193.176C473.024 191.436 476.878 188.826 479.985 185.345C483.093 181.864 485.455 177.638 487.071 172.665C488.687 167.569 489.495 161.788 489.495 155.324V149.544C489.495 142.955 488.687 137.113 487.071 132.016C485.455 126.92 483.093 122.693 479.985 119.337C476.878 115.856 473.024 113.246 468.425 111.505C463.825 109.765 458.48 108.895 452.389 108.895C446.422 108.895 441.139 109.765 436.539 111.505C431.94 113.246 428.086 115.856 424.979 119.337C421.871 122.693 419.509 126.92 417.893 132.016C416.401 137.113 415.655 142.955 415.655 149.544V155.324C415.655 161.788 416.401 167.569 417.893 172.665C419.509 177.638 421.871 181.864 424.979 185.345C428.086 188.826 431.94 191.436 436.539 193.176C441.139 194.917 446.422 195.787 452.389 195.787Z" fill="#BFB7B6"/>
<path d="M538.343 103.86V81.4846H564.261V103.86H538.343ZM538.343 216.298V118.218H564.261V216.298H538.343Z" fill="#BFB7B6"/>
<path d="M588.054 216.298V81.4846H613.973V216.298H588.054Z" fill="#BFB7B6"/>
<path d="M392.72 365.469V237.555H420.503V341.788H485.02V365.469H392.72Z" fill="#BFB7B6"/>
<path d="M545.774 367.706C535.083 367.706 526.008 365.904 518.55 362.299C511.091 358.57 505.435 352.913 501.582 345.331C497.728 337.623 495.801 327.99 495.801 316.429C495.801 304.619 497.728 294.985 501.582 287.527C505.435 279.944 511.091 274.35 518.55 270.745C526.008 267.016 535.083 265.151 545.774 265.151C556.713 265.151 565.849 267.016 573.184 270.745C580.642 274.35 586.298 279.944 590.152 287.527C594.005 294.985 595.932 304.619 595.932 316.429C595.932 327.99 594.005 337.623 590.152 345.331C586.298 352.913 580.642 358.57 573.184 362.299C565.849 365.904 556.713 367.706 545.774 367.706ZM545.774 347.568C551.492 347.568 556.029 346.512 559.385 344.398C562.866 342.285 565.414 339.053 567.03 334.702C568.646 330.351 569.454 325.006 569.454 318.666V314.191C569.454 307.851 568.646 302.506 567.03 298.155C565.414 293.805 562.866 290.572 559.385 288.459C556.029 286.222 551.492 285.103 545.774 285.103C540.18 285.103 535.642 286.222 532.162 288.459C528.805 290.572 526.319 293.805 524.703 298.155C523.087 302.506 522.279 307.851 522.279 314.191V318.666C522.279 325.006 523.087 330.351 524.703 334.702C526.319 339.053 528.805 342.285 532.162 344.398C535.642 346.512 540.18 347.568 545.774 347.568Z" fill="#BFB7B6"/>
<path d="M658.077 367.706C647.635 367.706 638.871 365.904 631.786 362.299C624.7 358.57 619.293 352.913 615.563 345.331C611.958 337.623 610.156 327.99 610.156 316.429C610.156 304.619 611.958 294.985 615.563 287.527C619.293 279.944 624.7 274.288 631.786 270.559C638.996 266.829 647.759 264.965 658.077 264.965C664.79 264.965 670.819 265.773 676.164 267.389C681.634 269.005 686.357 271.491 690.335 274.847C694.313 278.204 697.297 282.368 699.286 287.34C701.399 292.189 702.455 297.969 702.455 304.682H676.537C676.537 300.206 675.853 296.539 674.486 293.68C673.118 290.821 671.005 288.646 668.146 287.154C665.411 285.662 661.931 284.916 657.704 284.916C652.732 284.916 648.692 286.035 645.584 288.273C642.476 290.51 640.177 293.805 638.685 298.155C637.193 302.506 636.447 307.914 636.447 314.378V318.666C636.447 325.006 637.193 330.351 638.685 334.702C640.301 339.053 642.725 342.347 645.957 344.585C649.189 346.698 653.415 347.755 658.636 347.755C662.863 347.755 666.344 347.009 669.078 345.517C671.938 344.025 674.113 341.788 675.605 338.804C677.096 335.821 677.842 332.216 677.842 327.99H702.455C702.455 334.329 701.399 339.985 699.286 344.958C697.297 349.93 694.313 354.094 690.335 357.451C686.482 360.807 681.82 363.355 676.35 365.096C670.881 366.836 664.79 367.706 658.077 367.706Z" fill="#BFB7B6"/>
<path d="M721.893 365.469V230.469H747.811V308.224L782.121 267.389H812.514L778.951 305.8L814.192 365.469H784.545L761.982 324.074L747.811 337.872V365.469H721.893Z" fill="#BFB7B6"/>
</svg>
